PathFileType	4	(X/Y/Z)	C:/Users/opensim2020/Desktop/walking_exp_matlab/subject01_walking10_straight_02.trc	
DataRate	CameraRate	NumFrames	NumMarkers	Units	OrigDataRate	OrigDataStartFrame	OrigNumFrames	
100.00	100.00	4	43	mm	100.00	2182	262	
Frame#	Time	LFHD			RFHD			LBHD			RBHD			C7			T10			CLAV			STRN			RBAK			LSHO			LUPA			LELB			LFRM			LWRA			LWRB			LFIN			RSHO			RUPA			RELB			RFRM			RWRA			RWRB			RFIN			LASI			RASI			LPSI			RPSI			LTHI			LKNE			LTIB			LANK			LHEE			LTOE			RTHI			RKNE			RTIB			RANK			RHEE			RTOE			*39			*40			*41			*42			
		X1	Y1	Z1	X2	Y2	Z2	X3	Y3	Z3	X4	Y4	Z4	X5	Y5	Z5	X6	Y6	Z6	X7	Y7	Z7	X8	Y8	Z8	X9	Y9	Z9	X10	Y10	Z10	X11	Y11	Z11	X12	Y12	Z12	X13	Y13	Z13	X14	Y14	Z14	X15	Y15	Z15	X16	Y16	Z16	X17	Y17	Z17	X18	Y18	Z18	X19	Y19	Z19	X20	Y20	Z20	X21	Y21	Z21	X22	Y22	Z22	X23	Y23	Z23	X24	Y24	Z24	X25	Y25	Z25	X26	Y26	Z26	X27	Y27	Z27	X28	Y28	Z28	X29	Y29	Z29	X30	Y30	Z30	X31	Y31	Z31	X32	Y32	Z32	X33	Y33	Z33	X34	Y34	Z34	X35	Y35	Z35	X36	Y36	Z36	X37	Y37	Z37	X38	Y38	Z38	X39	Y39	Z39	X40	Y40	Z40	X41	Y41	Z41	X42	Y42	Z42	X43	Y43	Z43	

164	1.630	-1000.28607	-253.21852	1658.60950	-1107.95581	-293.09250	1659.56836	-1037.16321	-136.60104	1628.69543	-1150.95691	-176.18474	1629.72144	-1064.22217	-89.44627	1425.20520	-1061.37207	-61.01058	1129.60010	-1063.77014	-233.42441	1358.39795	-1052.98535	-281.88004	1206.73291	-1131.43225	-37.57558	1223.84460	-902.65930	-172.92274	1393.02612	-813.01215	-166.07317	1210.19092	-808.70447	-179.82506	1056.29907	-789.94849	-256.51468	968.71783	-816.85138	-372.01331	895.76202	-790.77081	-325.49503	867.71222	-783.43237	-398.58951	827.19720	-1215.79761	-166.36000	1378.92505	-1305.12231	-95.19456	1177.66577	-1303.99438	-89.06956	1053.42603	-1332.51123	-106.79707	933.97906	-1313.64099	-179.80487	811.79218	-1351.21301	-134.64484	815.53253	-1347.13428	-164.39876	733.89374	-942.41345	-231.12845	921.45111	-1157.55908	-245.77094	929.83051	-1008.39014	-48.60649	936.82123	-1154.17664	-59.35260	940.55603	-900.21259	-148.28387	590.44769	-915.24463	-110.76644	458.54364	-910.38611	18.93531	317.70923	-964.91022	146.48767	138.76068	-1018.76202	197.00143	138.36983	-966.03656	42.12660	34.89087	-1216.81665	-253.43005	603.12494	-1185.25574	-293.67477	452.33798	-1191.54468	-275.43054	276.16974	-1140.78809	-291.36142	72.21355	-1087.66003	-247.72437	33.39145	-1140.92786	-434.25360	39.46511	-1088.10193	-280.85507	1694.74658	-3101.89453	1973.09180	1023.49329	-3140.64380	2012.43872	1022.07544			 
165	1.640	-1002.12518	-260.60315	1659.41309	-1109.71082	-300.79025	1660.22034	-1039.19055	-144.08553	1629.50012	-1152.93628	-183.92336	1630.38721	-1066.36731	-97.00983	1425.93750	-1062.50269	-68.89227	1130.21313	-1065.36572	-241.21507	1359.41833	-1054.49170	-289.84253	1207.71118	-1132.85718	-45.44883	1224.36816	-904.38287	-180.45825	1393.84595	-814.67114	-173.22932	1211.07617	-810.15625	-185.88414	1057.36023	-791.75891	-262.11365	968.81750	-818.30298	-376.49451	894.54016	-792.34406	-330.07632	867.08990	-785.04620	-402.75253	825.59009	-1217.50281	-173.92209	1379.79504	-1306.63245	-103.55166	1178.09314	-1305.60156	-97.77399	1054.09155	-1334.18420	-115.48696	934.72974	-1315.47009	-188.45773	812.47357	-1353.06421	-143.36453	816.32581	-1349.10352	-172.94637	734.56598	-944.56134	-239.50629	922.13647	-1159.72009	-253.81906	930.85754	-1009.52814	-57.11245	937.65472	-1155.48157	-67.33843	941.73108	-901.14020	-160.65862	590.31915	-915.21362	-124.25090	458.35196	-910.58844	8.80161	320.63269	-964.14996	140.22710	144.25017	-1018.60382	189.69815	145.84459	-966.10535	41.56616	34.97499	-1218.41833	-260.19604	603.31140	-1186.04126	-299.65121	451.99326	-1192.23560	-279.39365	276.06467	-1140.63513	-292.36951	72.22635	-1087.89954	-247.77361	33.50190	-1139.67529	-435.07495	38.49894	-1089.76538	-288.32419	1695.36865	-3101.93652	1973.11987	1023.45563	-3140.61890	2012.49963	1021.98242			 
166	1.650	-1004.01770	-268.11493	1660.13489	-1111.53088	-308.38663	1660.83643	-1041.24634	-151.63901	1630.26440	-1154.93213	-191.66313	1630.97876	-1067.64819	-104.65401	1426.47876	-1063.77783	-76.66985	1130.89905	-1067.03345	-248.78189	1360.29053	-1056.03174	-297.60776	1208.62488	-1134.29688	-53.31556	1224.92664	-906.06891	-187.87509	1394.70044	-816.13666	-180.46289	1211.97021	-812.55084	-192.18289	1058.20081	-793.47467	-267.49457	968.89276	-819.79083	-381.14453	893.33728	-793.79449	-334.37186	866.45264	-786.60052	-406.59555	824.00085	-1218.91016	-181.37915	1380.51208	-1308.19592	-111.89249	1178.71887	-1307.22742	-106.51241	1054.84338	-1336.09851	-124.40939	935.71796	-1317.35474	-197.26753	813.29449	-1354.95642	-152.21194	817.25891	-1351.12061	-181.54868	735.54797	-946.79163	-247.97270	923.12476	-1161.97168	-261.72595	931.86523	-1010.99548	-65.48421	938.56134	-1156.90698	-75.45170	942.72650	-901.85229	-173.42242	590.14203	-914.95288	-138.46677	458.13477	-910.48755	-1.96289	324.01178	-963.31293	133.02272	149.95259	-1018.60364	181.15953	153.56538	-966.16748	40.76881	34.99496	-1219.67346	-266.19116	603.32330	-1186.71619	-305.21671	451.75714	-1192.52893	-283.38193	276.06329	-1140.30432	-293.06531	72.44980	-1087.91309	-248.07028	33.60269	-1138.73291	-435.58597	37.75149	-1091.63611	-296.00696	1696.06995	-3102.16577	1972.89441	1023.87115	-3140.60010	2012.55200	1022.05603			 
167	1.660	-1005.88263	-275.56912	1660.79651	-1113.30127	-316.00174	1661.37695	-1043.14124	-159.13080	1630.95251	-1156.81958	-199.30882	1631.48816	-1069.27747	-112.26904	1427.05164	-1065.15527	-84.30961	1131.56311	-1068.55615	-256.20651	1360.94873	-1057.54041	-305.29568	1209.41772	-1135.88611	-61.12366	1225.54919	-907.72681	-195.27142	1395.50659	-817.44159	-187.66296	1212.90100	-814.54578	-198.27754	1058.83130	-795.19708	-272.44162	968.82043	-821.16846	-385.56555	892.03552	-795.35986	-338.40906	865.66962	-788.07477	-410.14728	822.31573	-1220.37830	-189.04785	1381.36255	-1309.88306	-120.11903	1179.44299	-1308.83386	-115.09562	1055.63232	-1337.59839	-133.19858	936.54352	-1319.23560	-206.21013	814.22052	-1356.77490	-161.08145	818.24091	-1353.05115	-190.54485	736.45044	-949.05908	-256.07663	924.06940	-1164.23926	-269.47562	932.69189	-1012.72565	-73.64320	939.45215	-1158.64612	-83.20443	943.51929	-902.33807	-186.48293	590.01147	-914.45575	-153.18727	458.05856	-910.18823	-13.13161	327.70428	-962.47260	125.02084	155.82896	-1018.59497	171.71190	161.53915	-966.65674	39.45407	35.05517	-1220.69312	-271.46103	603.19971	-1187.43750	-310.30804	451.53006	-1192.75281	-287.12570	275.96408	-1140.04260	-293.72797	72.33509	-1088.01404	-247.96468	33.69215	-1138.11047	-436.26755	37.01137	-1093.50525	-303.63541	1696.70679	-3101.99121	1973.15051	1023.35852	-3140.62622	2012.54980	1021.95203			 
